<?xml version="1.0" standalone="no"?><!DOCTYPE svg PUBLIC "-//W3C//DTD SVG 1.1//EN" "http://www.w3.org/Graphics/SVG/1.1/DTD/svg11.dtd"><svg t="1740035918900" class="icon" viewBox="0 0 1024 1024" version="1.1" xmlns="http://www.w3.org/2000/svg" p-id="2795" xmlns:xlink="http://www.w3.org/1999/xlink" width="200" height="200"><path d="M768 640 682.666667 640 682.666667 725.333333 768 725.333333M768 469.333333 682.666667 469.333333 682.666667 554.666667 768 554.666667M853.333333 810.666667 512 810.666667 512 725.333333 597.333333 725.333333 597.333333 640 512 640 512 554.666667 597.333333 554.666667 597.333333 469.333333 512 469.333333 512 384 853.333333 384M426.666667 298.666667 341.333333 298.666667 341.333333 213.333333 426.666667 213.333333M426.666667 469.333333 341.333333 469.333333 341.333333 384 426.666667 384M426.666667 640 341.333333 640 341.333333 554.666667 426.666667 554.666667M426.666667 810.666667 341.333333 810.666667 341.333333 725.333333 426.666667 725.333333M256 298.666667 170.666667 298.666667 170.666667 213.333333 256 213.333333M256 469.333333 170.666667 469.333333 170.666667 384 256 384M256 640 170.666667 640 170.666667 554.666667 256 554.666667M256 810.666667 170.666667 810.666667 170.666667 725.333333 256 725.333333M512 298.666667 512 128 85.333333 128 85.333333 896 938.666667 896 938.666667 298.666667 512 298.666667Z" p-id="2796"></path></svg>