<?xml version="1.0" standalone="no"?><!DOCTYPE svg PUBLIC "-//W3C//DTD SVG 1.1//EN" "http://www.w3.org/Graphics/SVG/1.1/DTD/svg11.dtd"><svg t="1754461188218" class="icon" viewBox="0 0 1048 1024" version="1.1" xmlns="http://www.w3.org/2000/svg" p-id="4478" width="204.6875" height="200" xmlns:xlink="http://www.w3.org/1999/xlink"><path d="M461.911682 430.678659a9.838103 9.838103 0 0 1 7.430908-3.453802H491.949295v-97.229763a222.717907 222.717907 0 0 0-113.766149 52.330335l73.262469 61.331153z m-68.971382 91.996729a9.733442 9.733442 0 0 1 1.883892-8.058871l19.257564-24.176615-75.774326-62.796402a221.147997 221.147997 0 0 0-37.154538 131.453802 19.676206 19.676206 0 0 0 0 3.558463L397.754691 544.75879z m29.095667 111.358954a9.524121 9.524121 0 0 1-5.233034-6.384301l-5.442355-23.967294h-1.360588l-97.229763 17.792314a222.508585 222.508585 0 0 0 82.263287 110.521668l47.725265-88.019624z m229.416189-119.208504a9.41946 9.41946 0 0 1 1.883893 8.058872l-5.023713 21.769419 97.962388 18.838921a202.623058 202.623058 0 0 0 0-20.932134 221.775961 221.775961 0 0 0-31.398201-106.230581l-81.321341 56.412102z m-74.518397-87.705642a9.3148 9.3148 0 0 1 7.430908 3.558463l11.408013 14.233851 81.112019-56.20278a222.194603 222.194603 0 0 0-124.127555-59.133279v97.439085z" fill="#ffffff" p-id="4479"></path><path d="M1045.499581 637.802126l-95.973835-420.735895a38.305805 38.305805 0 0 0-20.932134-25.955847L539.883882 3.872445a37.677841 37.677841 0 0 0-33.177433 0L117.682737 191.110384a38.305805 38.305805 0 0 0-20.932134 25.955847L0.986089 637.802126a37.991823 37.991823 0 0 0 7.430908 32.444808l269.082584 337.530662a38.515127 38.515127 0 0 0 29.932952 14.443173h431.725265a38.515127 38.515127 0 0 0 29.932952-14.443173l269.082584-337.530662a37.887163 37.887163 0 0 0 7.326247-32.340147z m-165.049878-17.792314a30.351594 30.351594 0 0 1-35.479967 24.176615l-50.237122-9.628782a281.851186 281.851186 0 0 1-62.796402 108.951758A289.177433 289.177433 0 0 1 680.338501 787.048242l20.932135 45.004088a30.351594 30.351594 0 0 1-54.63287 25.537204l-19.990188-42.701554a284.886345 284.886345 0 0 1-207.018807-0.627964l-24.176615 45.004089a30.466721 30.466721 0 1 1-53.481602-29.200327L366.35649 785.896975a283.107114 283.107114 0 0 1-113.766149-152.90924l-51.179068 9.41946a30.351594 30.351594 0 0 1-11.094031-59.551921L240.763685 573.540474c0-4.186427-0.627964-8.268193-0.732624-12.45462a280.90924 280.90924 0 0 1 50.760425-172.690106l-34.224039-28.677024a30.372527 30.372527 0 0 1 39.247751-46.364677l35.375307 29.51431a280.699918 280.699918 0 0 1 160.968111-73.26247v-50.446443a30.351594 30.351594 0 0 1 60.598528 0v49.713818a280.385936 280.385936 0 0 1 163.89861 74.204416c3.767784 3.453802 7.430908 7.116926 10.466067 10.466067l39.03843-27.211774a30.487653 30.487653 0 0 1 35.165986 49.818479l-36.317253 25.118561a282.58381 282.58381 0 0 1 41.864268 138.675388 298.17825 298.17825 0 0 1-0.941946 35.061325l50.132461 9.628781a30.351594 30.351594 0 0 1 24.071954 35.479968z" fill="#ffffff" p-id="4480"></path><path d="M527.324601 681.026983a10.466067 10.466067 0 0 1-8.268193 0l-21.560098-10.466067a20.932134 20.932134 0 0 1-1.046607 2.197874l-47.620605 87.705642a222.717907 222.717907 0 0 0 152.071955-0.732625l-43.538839-93.147997z m107.59117-77.239575L629.368755 627.964023a9.524121 9.524121 0 0 1-5.128373 6.488961l-12.349959 5.860998 42.596893 90.845462a223.869174 223.869174 0 0 0 80.065413-108.114473l-98.067048-18.83892h-1.56991z" fill="#ffffff" p-id="4481"></path></svg>